PathFileType	4	(X/Y/Z)	C:/Users/opensim2020/Desktop/walking_exp_matlab/subject06_walking12_straigt_04.trc																																																																																																																																														
DataRate	CameraRate	NumFrames	NumMarkers	Units	OrigDataRate	OrigDataStartFrame	OrigNumFrames																																																																																																																																										
100	100	5	48	mm	100	2924	181																																																																																																																																										
Frame#	Time	LFHD			RFHD			LBHD			RBHD			C7			T10			CLAV			STRN			RBAK			LSHO			LUPA			LELB			LFRM			LWRA			LWRB			LFIN			RSHO			RUPA			RELB			RFRM			RWRA			RWRB			RFIN			LASI			RASI			LPSI			RPSI			LTHI			LKNE			LTIB			LANK			LHEE			LTOE			RTHI			RKNE			RTIB			RANK			RHEE			RTOE			*39			*40			*41			*42			*43			*44			*45			*46			*47		
		X1	Y1	Z1	X2	Y2	Z2	X3	Y3	Z3	X4	Y4	Z4	X5	Y5	Z5	X6	Y6	Z6	X7	Y7	Z7	X8	Y8	Z8	X9	Y9	Z9	X10	Y10	Z10	X11	Y11	Z11	X12	Y12	Z12	X13	Y13	Z13	X14	Y14	Z14	X15	Y15	Z15	X16	Y16	Z16	X17	Y17	Z17	X18	Y18	Z18	X19	Y19	Z19	X20	Y20	Z20	X21	Y21	Z21	X22	Y22	Z22	X23	Y23	Z23	X24	Y24	Z24	X25	Y25	Z25	X26	Y26	Z26	X27	Y27	Z27	X28	Y28	Z28	X29	Y29	Z29	X30	Y30	Z30	X31	Y31	Z31	X32	Y32	Z32	X33	Y33	Z33	X34	Y34	Z34	X35	Y35	Z35	X36	Y36	Z36	X37	Y37	Z37	X38	Y38	Z38	X39	Y39	Z39	X40	Y40	Z40	X41	Y41	Z41	X42	Y42	Z42	X43	Y43	Z43	X44	Y44	Z44	X45	Y45	Z45	X46	Y46	Z46	X47	Y47	Z47	X48	Y48	Z48
																																																																																																																																																	
159	1.58	503.15771	1680.29651	-1485.84192	498.42041	1661.82361	-1354.58728	373.70782	1616.6842	-1495.05554	370.01685	1604.40002	-1366.49329	380.45139	1458.0448	-1439.91919	362.44247	1128.50574	-1433.14514	493.47034	1385.51697	-1441.28088	540.67737	1211.05371	-1453.46106	317.62524	1284.52454	-1361.33691	433.9166	1417.22546	-1601.84912	449.13235	1215.83716	-1673.88123	460.63406	1103.79822	-1686.68188	536.99402	975.06555	-1709.55249	644.09369	902.5752	-1669.81775	590.46417	868.34918	-1701.82898	664.43365	817.08295	-1705.56445	453.35129	1415.14465	-1278.42847	402.14227	1216.50305	-1196.94604	398.87613	1093.67432	-1193.57397	398.71838	972.72388	-1180.54871	442.3493	827.84711	-1213.3833	385.31052	834.89069	-1177.29736	409.26849	753.08026	-1178.57568	529.46606	967.35925	-1556.32446	551.60712	978.45728	-1336.62048	375.35544	995.47607	-1513.92102	398.35593	1004.41254	-1347.16345	467.42926	647.19629	-1603.45935	479.01184	484.55237	-1585.3844	285.10684	331.42618	-1568.35522	155.95955	220.01439	-1526.79651	124.77533	239.3741	-1476.70532	212.35065	84.94125	-1532.22705	523.12225	646.10345	-1277.15283	540.05457	523.10657	-1306.89685	504.11984	256.69116	-1311.8645	495.64771	72.43294	-1364.12708	457.76257	49.0152	-1410.75977	650.7771	37.93454	-1366.41589	397.92435	1708.37805	-1429.0188	NaN	NaN	NaN	NaN	NaN	NaN	NaN	NaN	NaN	NaN	NaN	NaN	NaN	NaN	NaN	NaN	NaN	NaN	NaN	NaN	NaN	NaN	NaN	NaN
160	1.59	512.99677	1680.66052	-1485.47852	508.35452	1662.26978	-1354.19531	383.43936	1617.20935	-1494.54236	379.84308	1604.88953	-1365.99524	390.03787	1458.66113	-1439.31799	371.37469	1129.21606	-1432.19214	503.01144	1385.89014	-1440.91016	549.73285	1211.41626	-1452.8313	327.11951	1285.37915	-1359.90796	443.04733	1417.19006	-1601.45679	456.72461	1215.31824	-1673.04419	466.77292	1103.0116	-1685.63196	539.31531	971.85376	-1708.57678	643.94659	895.54437	-1669.50757	588.86346	863.15607	-1701.0498	660.91711	809.45233	-1705.54175	463.44757	1415.74658	-1277.88025	414.27588	1216.68518	-1195.78101	412.55627	1093.80798	-1192.10254	415.18674	972.85773	-1179.30042	461.66785	829.19531	-1212.92188	405.54926	834.83942	-1176.3219	431.84982	753.93646	-1177.59509	538.75623	968.18134	-1555.48535	560.0932	978.87152	-1335.75769	384.47855	996.08588	-1513.3092	406.87646	1005.04242	-1346.50793	481.82181	648.10889	-1603.26636	496.71072	485.87036	-1585.19946	304.44797	331.67328	-1568.56812	175.8251	219.46533	-1527.39368	144.17328	237.97267	-1477.0824	235.11887	86.07842	-1534.09338	529.3598	645.97253	-1276.83044	544.6781	522.58362	-1306.51306	504.95776	256.70682	-1312.07593	495.8273	72.50126	-1364.46936	457.91281	49.2445	-1410.87292	651.01343	37.83848	-1366.37805	407.67892	1708.86218	-1428.52673	NaN	NaN	NaN	NaN	NaN	NaN	NaN	NaN	NaN	NaN	NaN	NaN	NaN	NaN	NaN	NaN	NaN	NaN	NaN	NaN	NaN	NaN	NaN	NaN
161	1.6	522.6955	1681.0293	-1485.17151	518.21106	1662.60535	-1353.91956	393.16025	1617.68054	-1494.13586	389.67905	1605.36084	-1365.55591	399.65952	1459.10352	-1438.69983	380.30008	1129.80774	-1431.18225	512.45111	1386.12915	-1440.5343	558.75018	1211.60974	-1452.25903	336.4599	1286.1427	-1358.39905	452.15491	1417.12158	-1600.9989	464.11826	1214.89905	-1672.16919	472.78406	1102.4248	-1684.49915	541.27844	968.73932	-1707.53113	643.31488	888.71912	-1669.15503	586.73218	858.3252	-1700.24524	656.7832	802.19415	-1705.53784	473.34299	1416.29297	-1277.46265	426.28323	1216.87219	-1194.58386	426.13657	1094.0343	-1190.61389	431.65878	973.20129	-1177.98999	482.25565	831.20032	-1212.02319	425.90305	834.99951	-1175.27075	454.68707	755.06622	-1176.50439	548.05188	968.9527	-1554.5094	568.73193	979.16742	-1334.8772	393.48505	996.6709	-1512.79346	415.39291	1005.43384	-1345.81458	495.98407	649.00067	-1603.12866	514.26428	487.194	-1584.93579	324.10028	331.28876	-1568.88599	196.46207	217.80769	-1528.11548	164.17424	235.32001	-1477.70679	259.19907	86.66953	-1536.01318	535.37964	645.68884	-1276.66443	549.19952	522.10522	-1306.19873	506.07321	256.7088	-1312.49316	496.18698	72.67516	-1364.85474	458.05371	49.46009	-1411.2843	651.07642	37.66405	-1366.39282	417.59131	1709.30347	-1428.15076	NaN	NaN	NaN	NaN	NaN	NaN	NaN	NaN	NaN	NaN	NaN	NaN	NaN	NaN	NaN	NaN	NaN	NaN	NaN	NaN	NaN	NaN	NaN	NaN
162	1.61	532.51385	1681.26428	-1485.02771	528.1308	1662.91553	-1353.72888	402.86331	1618.10046	-1493.84607	399.48648	1605.83044	-1365.20471	409.01218	1459.54065	-1438.41162	389.17828	1130.29663	-1430.245	521.73407	1386.43323	-1440.1637	567.72876	1211.80444	-1451.64954	345.70944	1286.84399	-1357.30237	461.16504	1417.10791	-1600.56665	471.35385	1214.5343	-1671.3197	478.74417	1101.95459	-1683.41223	542.92731	965.97778	-1706.55127	642.03674	882.11316	-1668.70313	584.12634	853.90552	-1699.56543	651.98962	795.33551	-1705.39343	483.06635	1416.86926	-1277.04053	438.56415	1217.42847	-1193.80078	439.46649	1094.28015	-1189.08936	448.15912	973.66638	-1176.55994	503.03708	833.43848	-1210.9303	446.45557	835.48926	-1174.11328	477.76987	756.7478	-1175.38477	557.41516	969.69525	-1553.45154	577.07867	979.28223	-1333.80615	402.48087	997.11682	-1512.32617	423.84244	1005.66095	-1345.1449	509.94067	649.70618	-1603.30896	531.60455	488.58307	-1584.65344	343.97339	330.35904	-1569.26697	217.80798	215.10486	-1528.9447	184.83969	231.50452	-1478.66003	284.37766	86.38638	-1537.81702	540.8844	645.18256	-1276.70923	553.51147	521.62402	-1305.87805	507.57666	256.70599	-1312.78601	496.42371	72.76499	-1365.18091	458.16028	49.70357	-1411.5835	651.20703	37.54248	-1366.44788	427.4754	1709.6969	-1427.88	NaN	NaN	NaN	NaN	NaN	NaN	NaN	NaN	NaN	NaN	NaN	NaN	NaN	NaN	NaN	NaN	NaN	NaN	NaN	NaN	NaN	NaN	NaN	NaN
163	1.62	542.30597	1681.47058	-1484.9928	538.05505	1663.21399	-1353.66919	412.51053	1618.45154	-1493.53149	409.21652	1606.28821	-1364.98828	418.45547	1459.89661	-1437.79468	397.88934	1130.70996	-1429.43481	531.073	1386.60828	-1439.85156	576.63159	1211.99255	-1451.04041	354.88812	1287.43274	-1356.29883	470.31403	1417.0968	-1600.1123	478.47137	1214.23474	-1670.47937	484.52191	1101.60962	-1682.31604	544.24591	963.47742	-1705.58765	640.51501	875.90344	-1668.21826	581.18622	849.87744	-1698.58154	646.72516	788.84955	-1705.18848	492.54333	1417.37854	-1276.72144	450.16098	1217.74426	-1192.85242	452.81546	1094.62036	-1187.6394	464.72617	974.35638	-1175.14197	523.4845	835.961	-1210.16187	467.09192	836.24884	-1173.0426	500.95108	758.81769	-1174.1637	566.68756	970.44427	-1552.30103	585.41925	979.41174	-1332.64355	411.44308	997.49335	-1511.96558	432.51434	1005.65051	-1344.75256	523.82904	650.91614	-1603.24487	548.74634	490.13113	-1584.32166	364.18234	328.84616	-1569.65881	239.90102	211.36615	-1529.90808	205.9324	226.64183	-1479.23877	310.5705	85.37373	-1539.62036	546.67291	645.04181	-1276.49426	557.98114	521.19446	-1305.55762	509.49261	256.68762	-1312.90601	496.59882	72.76141	-1365.51782	458.19418	49.80758	-1411.68542	651.31653	37.52103	-1366.41528	437.36282	1710.0531	-1427.72815	NaN	NaN	NaN	NaN	NaN	NaN	NaN	NaN	NaN	NaN	NaN	NaN	NaN	NaN	NaN	NaN	NaN	NaN	NaN	NaN	NaN	NaN	NaN	NaN
